<svg width="418" height="9" viewBox="0 0 418 9" fill="none" xmlns="http://www.w3.org/2000/svg">
<path d="M8.03846 3.26523C6.36731 3.26523 5.01346 1.91139 5.01346 0.240234H4.01923H3.025C3.025 1.91139 1.67115 3.26523 0 3.26523V4.25947V5.2537C1.67115 5.2537 3.025 6.60754 3.025 8.2787H4.01923H5.01346C5.01346 6.60754 6.36731 5.2537 8.03846 5.2537V4.25947V3.26523Z" fill="#E0E1E5" style="fill:#E0E1E5;fill:color(display-p3 0.8784 0.8824 0.8980);fill-opacity:1;"/>
<path d="M16.0775 3.26523C14.4064 3.26523 13.0525 1.91139 13.0525 0.240234H12.0583H11.0641C11.0641 1.91139 9.71022 3.26523 8.03906 3.26523V4.25947V5.2537C9.71022 5.2537 11.0641 6.60754 11.0641 8.2787H12.0583H13.0525C13.0525 6.60754 14.4064 5.2537 16.0775 5.2537V4.25947V3.26523Z" fill="#E0E1E5" style="fill:#E0E1E5;fill:color(display-p3 0.8784 0.8824 0.8980);fill-opacity:1;"/>
<path d="M24.1166 3.26523C22.4454 3.26523 21.0916 1.91139 21.0916 0.240234H20.0974H19.1031C19.1031 1.91139 17.7493 3.26523 16.0781 3.26523V4.25947V5.2537C17.7493 5.2537 19.1031 6.60754 19.1031 8.2787H20.0974H21.0916C21.0916 6.60754 22.4454 5.2537 24.1166 5.2537V4.25947V3.26523Z" fill="#E0E1E5" style="fill:#E0E1E5;fill:color(display-p3 0.8784 0.8824 0.8980);fill-opacity:1;"/>
<path d="M32.1556 3.26523C30.4845 3.26523 29.1306 1.91139 29.1306 0.240234H28.1364H27.1422C27.1422 1.91139 25.7883 3.26523 24.1172 3.26523V4.25947V5.2537C25.7883 5.2537 27.1422 6.60754 27.1422 8.2787H28.1364H29.1306C29.1306 6.60754 30.4845 5.2537 32.1556 5.2537V4.25947V3.26523Z" fill="#E0E1E5" style="fill:#E0E1E5;fill:color(display-p3 0.8784 0.8824 0.8980);fill-opacity:1;"/>
<path d="M40.1947 3.26523C38.5236 3.26523 37.1697 1.91139 37.1697 0.240234H36.1755H35.1813C35.1813 1.91139 33.8274 3.26523 32.1562 3.26523V4.25947V5.2537C33.8274 5.2537 35.1813 6.60754 35.1813 8.2787H36.1755H37.1697C37.1697 6.60754 38.5236 5.2537 40.1947 5.2537V4.25947V3.26523Z" fill="#E0E1E5" style="fill:#E0E1E5;fill:color(display-p3 0.8784 0.8824 0.8980);fill-opacity:1;"/>
<path d="M48.2338 3.26523C46.5626 3.26523 45.2088 1.91139 45.2088 0.240234H44.2145H43.2203C43.2203 1.91139 41.8665 3.26523 40.1953 3.26523V4.25947V5.2537C41.8665 5.2537 43.2203 6.60754 43.2203 8.2787H44.2145H45.2088C45.2088 6.60754 46.5626 5.2537 48.2338 5.2537V4.25947V3.26523Z" fill="#E0E1E5" style="fill:#E0E1E5;fill:color(display-p3 0.8784 0.8824 0.8980);fill-opacity:1;"/>
<path d="M56.2728 3.26523C54.6017 3.26523 53.2478 1.91139 53.2478 0.240234H52.2536H51.2594C51.2594 1.91139 49.9055 3.26523 48.2344 3.26523V4.25947V5.2537C49.9055 5.2537 51.2594 6.60754 51.2594 8.2787H52.2536H53.2478C53.2478 6.60754 54.6017 5.2537 56.2728 5.2537V4.25947V3.26523Z" fill="#E0E1E5" style="fill:#E0E1E5;fill:color(display-p3 0.8784 0.8824 0.8980);fill-opacity:1;"/>
<path d="M64.3041 3.26523C62.6329 3.26523 61.2791 1.91139 61.2791 0.240234H60.2849H59.2906C59.2906 1.91139 57.9368 3.26523 56.2656 3.26523V4.25947V5.2537C57.9368 5.2537 59.2906 6.60754 59.2906 8.2787H60.2849H61.2791C61.2791 6.60754 62.6329 5.2537 64.3041 5.2537V4.25947V3.26523Z" fill="#E0E1E5" style="fill:#E0E1E5;fill:color(display-p3 0.8784 0.8824 0.8980);fill-opacity:1;"/>
<path d="M72.3431 3.26523C70.672 3.26523 69.3181 1.91139 69.3181 0.240234H68.3239H67.3297C67.3297 1.91139 65.9758 3.26523 64.3047 3.26523V4.25947V5.2537C65.9758 5.2537 67.3297 6.60754 67.3297 8.2787H68.3239H69.3181C69.3181 6.60754 70.672 5.2537 72.3431 5.2537V4.25947V3.26523Z" fill="#E0E1E5" style="fill:#E0E1E5;fill:color(display-p3 0.8784 0.8824 0.8980);fill-opacity:1;"/>
<path d="M80.3822 3.26523C78.7111 3.26523 77.3572 1.91139 77.3572 0.240234H76.363H75.3688C75.3688 1.91139 74.0149 3.26523 72.3438 3.26523V4.25947V5.2537C74.0149 5.2537 75.3688 6.60754 75.3688 8.2787H76.363H77.3572C77.3572 6.60754 78.7111 5.2537 80.3822 5.2537V4.25947V3.26523Z" fill="#E0E1E5" style="fill:#E0E1E5;fill:color(display-p3 0.8784 0.8824 0.8980);fill-opacity:1;"/>
<path d="M88.4213 3.26523C86.7501 3.26523 85.3963 1.91139 85.3963 0.240234H84.402H83.4078C83.4078 1.91139 82.054 3.26523 80.3828 3.26523V4.25947V5.2537C82.054 5.2537 83.4078 6.60754 83.4078 8.2787H84.402H85.3963C85.3963 6.60754 86.7501 5.2537 88.4213 5.2537V4.25947V3.26523Z" fill="#E0E1E5" style="fill:#E0E1E5;fill:color(display-p3 0.8784 0.8824 0.8980);fill-opacity:1;"/>
<path d="M96.4603 3.26523C94.7892 3.26523 93.4353 1.91139 93.4353 0.240234H92.4411H91.4469C91.4469 1.91139 90.093 3.26523 88.4219 3.26523V4.25947V5.2537C90.093 5.2537 91.4469 6.60754 91.4469 8.2787H92.4411H93.4353C93.4353 6.60754 94.7892 5.2537 96.4603 5.2537V4.25947V3.26523Z" fill="#E0E1E5" style="fill:#E0E1E5;fill:color(display-p3 0.8784 0.8824 0.8980);fill-opacity:1;"/>
<path d="M104.499 3.26523C102.828 3.26523 101.474 1.91139 101.474 0.240234H100.48H99.4859C99.4859 1.91139 98.1321 3.26523 96.4609 3.26523V4.25947V5.2537C98.1321 5.2537 99.4859 6.60754 99.4859 8.2787H100.48H101.474C101.474 6.60754 102.828 5.2537 104.499 5.2537V4.25947V3.26523Z" fill="#E0E1E5" style="fill:#E0E1E5;fill:color(display-p3 0.8784 0.8824 0.8980);fill-opacity:1;"/>
<path d="M112.538 3.26523C110.867 3.26523 109.513 1.91139 109.513 0.240234H108.519H107.525C107.525 1.91139 106.171 3.26523 104.5 3.26523V4.25947V5.2537C106.171 5.2537 107.525 6.60754 107.525 8.2787H108.519H109.513C109.513 6.60754 110.867 5.2537 112.538 5.2537V4.25947V3.26523Z" fill="#E0E1E5" style="fill:#E0E1E5;fill:color(display-p3 0.8784 0.8824 0.8980);fill-opacity:1;"/>
<path d="M120.578 3.26523C118.906 3.26523 117.553 1.91139 117.553 0.240234H116.558H115.564C115.564 1.91139 114.21 3.26523 112.539 3.26523V4.25947V5.2537C114.21 5.2537 115.564 6.60754 115.564 8.2787H116.558H117.553C117.553 6.60754 118.906 5.2537 120.578 5.2537V4.25947V3.26523Z" fill="#E0E1E5" style="fill:#E0E1E5;fill:color(display-p3 0.8784 0.8824 0.8980);fill-opacity:1;"/>
<path d="M128.617 3.26523C126.945 3.26523 125.592 1.91139 125.592 0.240234H124.597H123.603C123.603 1.91139 122.249 3.26523 120.578 3.26523V4.25947V5.2537C122.249 5.2537 123.603 6.60754 123.603 8.2787H124.597H125.592C125.592 6.60754 126.945 5.2537 128.617 5.2537V4.25947V3.26523Z" fill="#E0E1E5" style="fill:#E0E1E5;fill:color(display-p3 0.8784 0.8824 0.8980);fill-opacity:1;"/>
<path d="M136.656 3.26523C134.984 3.26523 133.631 1.91139 133.631 0.240234H132.636H131.642C131.642 1.91139 130.288 3.26523 128.617 3.26523V4.25947V5.2537C130.288 5.2537 131.642 6.60754 131.642 8.2787H132.636H133.631C133.631 6.60754 134.984 5.2537 136.656 5.2537V4.25947V3.26523Z" fill="#E0E1E5" style="fill:#E0E1E5;fill:color(display-p3 0.8784 0.8824 0.8980);fill-opacity:1;"/>
<path d="M144.695 3.26523C143.024 3.26523 141.67 1.91139 141.67 0.240234H140.675H139.681C139.681 1.91139 138.327 3.26523 136.656 3.26523V4.25947V5.2537C138.327 5.2537 139.681 6.60754 139.681 8.2787H140.675H141.67C141.67 6.60754 143.024 5.2537 144.695 5.2537V4.25947V3.26523Z" fill="#E0E1E5" style="fill:#E0E1E5;fill:color(display-p3 0.8784 0.8824 0.8980);fill-opacity:1;"/>
<path d="M152.734 3.26523C151.063 3.26523 149.709 1.91139 149.709 0.240234H148.715H147.72C147.72 1.91139 146.366 3.26523 144.695 3.26523V4.25947V5.2537C146.366 5.2537 147.72 6.60754 147.72 8.2787H148.715H149.709C149.709 6.60754 151.063 5.2537 152.734 5.2537V4.25947V3.26523Z" fill="#E0E1E5" style="fill:#E0E1E5;fill:color(display-p3 0.8784 0.8824 0.8980);fill-opacity:1;"/>
<path d="M160.773 3.26523C159.102 3.26523 157.748 1.91139 157.748 0.240234H156.754H155.759C155.759 1.91139 154.406 3.26523 152.734 3.26523V4.25947V5.2537C154.406 5.2537 155.759 6.60754 155.759 8.2787H156.754H157.748C157.748 6.60754 159.102 5.2537 160.773 5.2537V4.25947V3.26523Z" fill="#E0E1E5" style="fill:#E0E1E5;fill:color(display-p3 0.8784 0.8824 0.8980);fill-opacity:1;"/>
<path d="M168.804 3.26523C167.133 3.26523 165.779 1.91139 165.779 0.240234H164.785H163.791C163.791 1.91139 162.437 3.26523 160.766 3.26523V4.25947V5.2537C162.437 5.2537 163.791 6.60754 163.791 8.2787H164.785H165.779C165.779 6.60754 167.133 5.2537 168.804 5.2537V4.25947V3.26523Z" fill="#E0E1E5" style="fill:#E0E1E5;fill:color(display-p3 0.8784 0.8824 0.8980);fill-opacity:1;"/>
<path d="M176.843 3.26523C175.172 3.26523 173.818 1.91139 173.818 0.240234H172.824H171.83C171.83 1.91139 170.476 3.26523 168.805 3.26523V4.25947V5.2537C170.476 5.2537 171.83 6.60754 171.83 8.2787H172.824H173.818C173.818 6.60754 175.172 5.2537 176.843 5.2537V4.25947V3.26523Z" fill="#E0E1E5" style="fill:#E0E1E5;fill:color(display-p3 0.8784 0.8824 0.8980);fill-opacity:1;"/>
<path d="M184.882 3.26523C183.211 3.26523 181.857 1.91139 181.857 0.240234H180.863H179.869C179.869 1.91139 178.515 3.26523 176.844 3.26523V4.25947V5.2537C178.515 5.2537 179.869 6.60754 179.869 8.2787H180.863H181.857C181.857 6.60754 183.211 5.2537 184.882 5.2537V4.25947V3.26523Z" fill="#E0E1E5" style="fill:#E0E1E5;fill:color(display-p3 0.8784 0.8824 0.8980);fill-opacity:1;"/>
<path d="M192.921 3.26523C191.25 3.26523 189.896 1.91139 189.896 0.240234H188.902H187.908C187.908 1.91139 186.554 3.26523 184.883 3.26523V4.25947V5.2537C186.554 5.2537 187.908 6.60754 187.908 8.2787H188.902H189.896C189.896 6.60754 191.25 5.2537 192.921 5.2537V4.25947V3.26523Z" fill="#E0E1E5" style="fill:#E0E1E5;fill:color(display-p3 0.8784 0.8824 0.8980);fill-opacity:1;"/>
<path d="M200.96 3.26523C199.289 3.26523 197.935 1.91139 197.935 0.240234H196.941H195.947C195.947 1.91139 194.593 3.26523 192.922 3.26523V4.25947V5.2537C194.593 5.2537 195.947 6.60754 195.947 8.2787H196.941H197.935C197.935 6.60754 199.289 5.2537 200.96 5.2537V4.25947V3.26523Z" fill="#E0E1E5" style="fill:#E0E1E5;fill:color(display-p3 0.8784 0.8824 0.8980);fill-opacity:1;"/>
<path d="M208.999 3.26523C207.328 3.26523 205.974 1.91139 205.974 0.240234H204.98H203.986C203.986 1.91139 202.632 3.26523 200.961 3.26523V4.25947V5.2537C202.632 5.2537 203.986 6.60754 203.986 8.2787H204.98H205.974C205.974 6.60754 207.328 5.2537 208.999 5.2537V4.25947V3.26523Z" fill="#E0E1E5" style="fill:#E0E1E5;fill:color(display-p3 0.8784 0.8824 0.8980);fill-opacity:1;"/>
<path d="M217.038 3.26523C215.367 3.26523 214.013 1.91139 214.013 0.240234H213.019H212.025C212.025 1.91139 210.671 3.26523 209 3.26523V4.25947V5.2537C210.671 5.2537 212.025 6.60754 212.025 8.2787H213.019H214.013C214.013 6.60754 215.367 5.2537 217.038 5.2537V4.25947V3.26523Z" fill="#E0E1E5" style="fill:#E0E1E5;fill:color(display-p3 0.8784 0.8824 0.8980);fill-opacity:1;"/>
<path d="M225.078 3.26523C223.406 3.26523 222.053 1.91139 222.053 0.240234H221.058H220.064C220.064 1.91139 218.71 3.26523 217.039 3.26523V4.25947V5.2537C218.71 5.2537 220.064 6.60754 220.064 8.2787H221.058H222.053C222.053 6.60754 223.406 5.2537 225.078 5.2537V4.25947V3.26523Z" fill="#E0E1E5" style="fill:#E0E1E5;fill:color(display-p3 0.8784 0.8824 0.8980);fill-opacity:1;"/>
<path d="M233.117 3.26523C231.445 3.26523 230.092 1.91139 230.092 0.240234H229.097H228.103C228.103 1.91139 226.749 3.26523 225.078 3.26523V4.25947V5.2537C226.749 5.2537 228.103 6.60754 228.103 8.2787H229.097H230.092C230.092 6.60754 231.445 5.2537 233.117 5.2537V4.25947V3.26523Z" fill="#E0E1E5" style="fill:#E0E1E5;fill:color(display-p3 0.8784 0.8824 0.8980);fill-opacity:1;"/>
<path d="M241.156 3.26523C239.484 3.26523 238.131 1.91139 238.131 0.240234H237.136H236.142C236.142 1.91139 234.788 3.26523 233.117 3.26523V4.25947V5.2537C234.788 5.2537 236.142 6.60754 236.142 8.2787H237.136H238.131C238.131 6.60754 239.484 5.2537 241.156 5.2537V4.25947V3.26523Z" fill="#E0E1E5" style="fill:#E0E1E5;fill:color(display-p3 0.8784 0.8824 0.8980);fill-opacity:1;"/>
<path d="M249.195 3.26523C247.524 3.26523 246.17 1.91139 246.17 0.240234H245.175H244.181C244.181 1.91139 242.827 3.26523 241.156 3.26523V4.25947V5.2537C242.827 5.2537 244.181 6.60754 244.181 8.2787H245.175H246.17C246.17 6.60754 247.524 5.2537 249.195 5.2537V4.25947V3.26523Z" fill="#E0E1E5" style="fill:#E0E1E5;fill:color(display-p3 0.8784 0.8824 0.8980);fill-opacity:1;"/>
<path d="M257.234 3.26523C255.563 3.26523 254.209 1.91139 254.209 0.240234H253.215H252.22C252.22 1.91139 250.866 3.26523 249.195 3.26523V4.25947V5.2537C250.866 5.2537 252.22 6.60754 252.22 8.2787H253.215H254.209C254.209 6.60754 255.563 5.2537 257.234 5.2537V4.25947V3.26523Z" fill="#E0E1E5" style="fill:#E0E1E5;fill:color(display-p3 0.8784 0.8824 0.8980);fill-opacity:1;"/>
<path d="M265.273 3.26523C263.602 3.26523 262.248 1.91139 262.248 0.240234H261.254H260.259C260.259 1.91139 258.906 3.26523 257.234 3.26523V4.25947V5.2537C258.906 5.2537 260.259 6.60754 260.259 8.2787H261.254H262.248C262.248 6.60754 263.602 5.2537 265.273 5.2537V4.25947V3.26523Z" fill="#E0E1E5" style="fill:#E0E1E5;fill:color(display-p3 0.8784 0.8824 0.8980);fill-opacity:1;"/>
<path d="M273.304 3.26523C271.633 3.26523 270.279 1.91139 270.279 0.240234H269.285H268.291C268.291 1.91139 266.937 3.26523 265.266 3.26523V4.25947V5.2537C266.937 5.2537 268.291 6.60754 268.291 8.2787H269.285H270.279C270.279 6.60754 271.633 5.2537 273.304 5.2537V4.25947V3.26523Z" fill="#E0E1E5" style="fill:#E0E1E5;fill:color(display-p3 0.8784 0.8824 0.8980);fill-opacity:1;"/>
<path d="M281.343 3.26523C279.672 3.26523 278.318 1.91139 278.318 0.240234H277.324H276.33C276.33 1.91139 274.976 3.26523 273.305 3.26523V4.25947V5.2537C274.976 5.2537 276.33 6.60754 276.33 8.2787H277.324H278.318C278.318 6.60754 279.672 5.2537 281.343 5.2537V4.25947V3.26523Z" fill="#E0E1E5" style="fill:#E0E1E5;fill:color(display-p3 0.8784 0.8824 0.8980);fill-opacity:1;"/>
<path d="M289.382 3.26523C287.711 3.26523 286.357 1.91139 286.357 0.240234H285.363H284.369C284.369 1.91139 283.015 3.26523 281.344 3.26523V4.25947V5.2537C283.015 5.2537 284.369 6.60754 284.369 8.2787H285.363H286.357C286.357 6.60754 287.711 5.2537 289.382 5.2537V4.25947V3.26523Z" fill="#E0E1E5" style="fill:#E0E1E5;fill:color(display-p3 0.8784 0.8824 0.8980);fill-opacity:1;"/>
<path d="M297.421 3.26523C295.75 3.26523 294.396 1.91139 294.396 0.240234H293.402H292.408C292.408 1.91139 291.054 3.26523 289.383 3.26523V4.25947V5.2537C291.054 5.2537 292.408 6.60754 292.408 8.2787H293.402H294.396C294.396 6.60754 295.75 5.2537 297.421 5.2537V4.25947V3.26523Z" fill="#E0E1E5" style="fill:#E0E1E5;fill:color(display-p3 0.8784 0.8824 0.8980);fill-opacity:1;"/>
<path d="M305.46 3.26523C303.789 3.26523 302.435 1.91139 302.435 0.240234H301.441H300.447C300.447 1.91139 299.093 3.26523 297.422 3.26523V4.25947V5.2537C299.093 5.2537 300.447 6.60754 300.447 8.2787H301.441H302.435C302.435 6.60754 303.789 5.2537 305.46 5.2537V4.25947V3.26523Z" fill="#E0E1E5" style="fill:#E0E1E5;fill:color(display-p3 0.8784 0.8824 0.8980);fill-opacity:1;"/>
<path d="M313.499 3.26523C311.828 3.26523 310.474 1.91139 310.474 0.240234H309.48H308.486C308.486 1.91139 307.132 3.26523 305.461 3.26523V4.25947V5.2537C307.132 5.2537 308.486 6.60754 308.486 8.2787H309.48H310.474C310.474 6.60754 311.828 5.2537 313.499 5.2537V4.25947V3.26523Z" fill="#E0E1E5" style="fill:#E0E1E5;fill:color(display-p3 0.8784 0.8824 0.8980);fill-opacity:1;"/>
<path d="M321.538 3.26523C319.867 3.26523 318.513 1.91139 318.513 0.240234H317.519H316.525C316.525 1.91139 315.171 3.26523 313.5 3.26523V4.25947V5.2537C315.171 5.2537 316.525 6.60754 316.525 8.2787H317.519H318.513C318.513 6.60754 319.867 5.2537 321.538 5.2537V4.25947V3.26523Z" fill="#E0E1E5" style="fill:#E0E1E5;fill:color(display-p3 0.8784 0.8824 0.8980);fill-opacity:1;"/>
<path d="M329.578 3.26523C327.906 3.26523 326.553 1.91139 326.553 0.240234H325.558H324.564C324.564 1.91139 323.21 3.26523 321.539 3.26523V4.25947V5.2537C323.21 5.2537 324.564 6.60754 324.564 8.2787H325.558H326.553C326.553 6.60754 327.906 5.2537 329.578 5.2537V4.25947V3.26523Z" fill="#E0E1E5" style="fill:#E0E1E5;fill:color(display-p3 0.8784 0.8824 0.8980);fill-opacity:1;"/>
<path d="M337.617 3.26523C335.945 3.26523 334.592 1.91139 334.592 0.240234H333.597H332.603C332.603 1.91139 331.249 3.26523 329.578 3.26523V4.25947V5.2537C331.249 5.2537 332.603 6.60754 332.603 8.2787H333.597H334.592C334.592 6.60754 335.945 5.2537 337.617 5.2537V4.25947V3.26523Z" fill="#E0E1E5" style="fill:#E0E1E5;fill:color(display-p3 0.8784 0.8824 0.8980);fill-opacity:1;"/>
<path d="M345.656 3.26523C343.984 3.26523 342.631 1.91139 342.631 0.240234H341.636H340.642C340.642 1.91139 339.288 3.26523 337.617 3.26523V4.25947V5.2537C339.288 5.2537 340.642 6.60754 340.642 8.2787H341.636H342.631C342.631 6.60754 343.984 5.2537 345.656 5.2537V4.25947V3.26523Z" fill="#E0E1E5" style="fill:#E0E1E5;fill:color(display-p3 0.8784 0.8824 0.8980);fill-opacity:1;"/>
<path d="M353.695 3.26523C352.024 3.26523 350.67 1.91139 350.67 0.240234H349.675H348.681C348.681 1.91139 347.327 3.26523 345.656 3.26523V4.25947V5.2537C347.327 5.2537 348.681 6.60754 348.681 8.2787H349.675H350.67C350.67 6.60754 352.024 5.2537 353.695 5.2537V4.25947V3.26523Z" fill="#E0E1E5" style="fill:#E0E1E5;fill:color(display-p3 0.8784 0.8824 0.8980);fill-opacity:1;"/>
<path d="M361.734 3.26523C360.063 3.26523 358.709 1.91139 358.709 0.240234H357.715H356.72C356.72 1.91139 355.366 3.26523 353.695 3.26523V4.25947V5.2537C355.366 5.2537 356.72 6.60754 356.72 8.2787H357.715H358.709C358.709 6.60754 360.063 5.2537 361.734 5.2537V4.25947V3.26523Z" fill="#E0E1E5" style="fill:#E0E1E5;fill:color(display-p3 0.8784 0.8824 0.8980);fill-opacity:1;"/>
<path d="M369.773 3.26523C368.102 3.26523 366.748 1.91139 366.748 0.240234H365.754H364.759C364.759 1.91139 363.406 3.26523 361.734 3.26523V4.25947V5.2537C363.406 5.2537 364.759 6.60754 364.759 8.2787H365.754H366.748C366.748 6.60754 368.102 5.2537 369.773 5.2537V4.25947V3.26523Z" fill="#E0E1E5" style="fill:#E0E1E5;fill:color(display-p3 0.8784 0.8824 0.8980);fill-opacity:1;"/>
<path d="M377.804 3.26523C376.133 3.26523 374.779 1.91139 374.779 0.240234H373.785H372.791C372.791 1.91139 371.437 3.26523 369.766 3.26523V4.25947V5.2537C371.437 5.2537 372.791 6.60754 372.791 8.2787H373.785H374.779C374.779 6.60754 376.133 5.2537 377.804 5.2537V4.25947V3.26523Z" fill="#E0E1E5" style="fill:#E0E1E5;fill:color(display-p3 0.8784 0.8824 0.8980);fill-opacity:1;"/>
<path d="M385.843 3.26523C384.172 3.26523 382.818 1.91139 382.818 0.240234H381.824H380.83C380.83 1.91139 379.476 3.26523 377.805 3.26523V4.25947V5.2537C379.476 5.2537 380.83 6.60754 380.83 8.2787H381.824H382.818C382.818 6.60754 384.172 5.2537 385.843 5.2537V4.25947V3.26523Z" fill="#E0E1E5" style="fill:#E0E1E5;fill:color(display-p3 0.8784 0.8824 0.8980);fill-opacity:1;"/>
<path d="M393.882 3.26523C392.211 3.26523 390.857 1.91139 390.857 0.240234H389.863H388.869C388.869 1.91139 387.515 3.26523 385.844 3.26523V4.25947V5.2537C387.515 5.2537 388.869 6.60754 388.869 8.2787H389.863H390.857C390.857 6.60754 392.211 5.2537 393.882 5.2537V4.25947V3.26523Z" fill="#E0E1E5" style="fill:#E0E1E5;fill:color(display-p3 0.8784 0.8824 0.8980);fill-opacity:1;"/>
<path d="M401.921 3.26523C400.25 3.26523 398.896 1.91139 398.896 0.240234H397.902H396.908C396.908 1.91139 395.554 3.26523 393.883 3.26523V4.25947V5.2537C395.554 5.2537 396.908 6.60754 396.908 8.2787H397.902H398.896C398.896 6.60754 400.25 5.2537 401.921 5.2537V4.25947V3.26523Z" fill="#E0E1E5" style="fill:#E0E1E5;fill:color(display-p3 0.8784 0.8824 0.8980);fill-opacity:1;"/>
<path d="M409.96 3.26523C408.289 3.26523 406.935 1.91139 406.935 0.240234H405.941H404.947C404.947 1.91139 403.593 3.26523 401.922 3.26523V4.25947V5.2537C403.593 5.2537 404.947 6.60754 404.947 8.2787H405.941H406.935C406.935 6.60754 408.289 5.2537 409.96 5.2537V4.25947V3.26523Z" fill="#E0E1E5" style="fill:#E0E1E5;fill:color(display-p3 0.8784 0.8824 0.8980);fill-opacity:1;"/>
<path d="M417.999 3.26523C416.328 3.26523 414.974 1.91139 414.974 0.240234H413.98H412.986C412.986 1.91139 411.632 3.26523 409.961 3.26523V4.25947V5.2537C411.632 5.2537 412.986 6.60754 412.986 8.2787H413.98H414.974C414.974 6.60754 416.328 5.2537 417.999 5.2537V4.25947V3.26523Z" fill="#E0E1E5" style="fill:#E0E1E5;fill:color(display-p3 0.8784 0.8824 0.8980);fill-opacity:1;"/>
</svg>
