<svg width="100" height="71" viewBox="0 0 100 71" fill="none" xmlns="http://www.w3.org/2000/svg">
<path fill-rule="evenodd" clip-rule="evenodd" d="M79.6297 21.3653C72.4806 16.5349 62.8196 12.6006 52.3718 10.9512C43.1333 9.49263 30.097 8.74752 19.2355 8.37292C13.8331 8.18661 9.01894 8.09338 5.55577 8.04677C3.8247 8.02347 2.43248 8.01183 1.47463 8.00602C0.995742 8.00312 0.625527 8.00167 0.375928 8.00095L0.0935223 8.00032L0.00192782 8.00023C0.00184157 8.00023 0.00106568 8.00023 0.00109519 4.00023C0.0011247 0.000226414 0.00142579 0.00022806 0.00185725 0.000228023L0.00336895 0.000226675L0.104865 0.000322154L0.399085 0.000979595C0.656732 0.00172422 1.03542 0.00321069 1.52317 0.00617037C2.49862 0.0120885 3.91066 0.0239047 5.66344 0.0474961C9.16799 0.0946669 14.0399 0.188983 19.5112 0.37768C30.3969 0.753108 43.8578 1.50793 53.6194 3.04902C65.173 4.87304 75.9463 9.22167 84.1085 14.7365C92.068 20.1145 98.3627 27.1816 99.3407 34.7777C100.267 41.9686 96.267 47.2691 91.1409 50.871C86.0829 54.425 79.3244 56.8238 72.8774 58.475C66.563 60.0921 60.2115 61.0739 55.3681 61.6572L59.0443 65.2663L53.4398 70.975L40.8236 58.589L53.6908 44.7902L59.5417 50.2461L56.5631 53.4403C60.8244 52.8671 65.9014 52.0034 70.8926 50.7251C77.0183 49.1562 82.667 47.0478 86.5415 44.3254C90.3479 41.6508 91.8062 38.9055 91.4062 35.7993C90.8749 31.6729 86.9814 26.3326 79.6297 21.3653Z" fill="#FAF272" style="fill:#FAF272;fill:color(display-p3 0.9804 0.9490 0.4471);fill-opacity:1;"/>
</svg>
