<svg width="84" height="75" viewBox="0 0 84 75" fill="none" xmlns="http://www.w3.org/2000/svg">
<path fill-rule="evenodd" clip-rule="evenodd" d="M73.8844 22.245C70.8778 17.2655 63.6417 12.573 53.3691 10.9512C44.1306 9.4927 31.0943 8.74759 20.2327 8.373C14.8304 8.18668 10.0162 8.09346 6.55305 8.04685C4.82198 8.02354 3.42976 8.01191 2.47191 8.0061C1.99302 8.00319 1.62281 8.00174 1.37321 8.00102L1.0908 8.00039L0.999209 8.0003C0.999122 8.0003 0.998346 8.0003 0.998376 4.0003C0.998404 0.00030075 0.998708 0.000297581 0.999139 0.000297681L1.10214 0.000394933L1.39637 0.0010523C1.65401 0.00179699 2.0327 0.0032834 2.52045 0.00624315C3.4959 0.0121613 4.90794 0.0239775 6.66072 0.0475689C10.1653 0.0947397 15.0372 0.189054 20.5085 0.377749C31.3941 0.753177 44.8551 1.50799 54.6167 3.04909C66.3455 4.90076 76.1125 10.458 80.7328 18.1099C83.0875 22.0095 84.0963 26.4799 83.1581 31.0705C82.2259 35.6321 79.462 39.8786 75.0659 43.5649C70.5704 47.3345 63.9255 50.5782 56.8443 53.3233C49.679 56.101 41.7138 58.4995 34.3223 60.4585C27.4302 62.2852 20.9823 63.7441 16.0613 64.7815L20.28 67.7161L15.7116 74.2835L0.755014 63.8793L10.0153 47.5286L16.9764 51.471L13.7985 57.0822C18.6955 56.0582 25.2569 54.585 32.2728 52.7255C39.5083 50.8078 47.1645 48.4956 53.9527 45.8642C60.825 43.2001 66.4657 40.3361 69.9257 37.4348C73.2813 34.621 74.8306 31.8642 75.3202 29.4686C75.8038 27.1019 75.3433 24.6611 73.8844 22.245Z" fill="#FAF272" style="fill:#FAF272;fill:color(display-p3 0.9804 0.9490 0.4471);fill-opacity:1;"/>
</svg>
